<?xml version="1.0" encoding="iso-8859-1"?>
<!-- Generator: Adobe Illustrator 19.0.0, SVG Export Plug-In . SVG Version: 6.00 Build 0)  -->
<svg version="1.1" id="Layer_1" xmlns="http://www.w3.org/2000/svg" xmlns:xlink="http://www.w3.org/1999/xlink" x="0px" y="0px"
	 viewBox="0 0 512 512" style="enable-background:new 0 0 512 512;" xml:space="preserve">
<rect x="10.199" y="164.809" style="fill:#E8E8E8;" width="409.906" height="318.552"/>
<polygon style="fill:#F07057;" points="348.665,28.546 83.982,28.546 10.199,164.805 420.105,164.805 "/>
<rect x="158.934" y="319.398" style="fill:#84B3D2;" width="112.436" height="163.962"/>
<circle style="fill:#F07057;" cx="420.544" cy="402.41" r="81.257"/>
<polygon style="fill:#E8E8E8;" points="420.545,352.312 431.757,386.818 468.038,386.818 438.686,408.144 449.897,442.65 
	420.545,421.324 391.193,442.65 402.404,408.144 373.051,386.818 409.334,386.818 "/>
<path d="M46.874,338.613c-5.632,0-10.199,4.567-10.199,10.199v3.447c0,5.632,4.567,10.199,10.199,10.199s10.199-4.567,10.199-10.199
	v-3.447C57.073,343.179,52.506,338.613,46.874,338.613z"/>
<path d="M46.874,371.355c-5.632,0-10.199,4.567-10.199,10.199v68.069c0,5.632,4.567,10.199,10.199,10.199
	s10.199-4.567,10.199-10.199v-68.069C57.073,375.922,52.506,371.355,46.874,371.355z"/>
<path d="M420.545,493.654c50.428,0,91.455-40.815,91.455-91.243c0-47.132-35.839-86.047-81.696-90.934V164.805
	c0-1.704-0.423-3.308-1.163-4.719c-0.003-0.006-0.001-0.01-0.004-0.016l-0.054-0.103c-0.006-0.011-0.012-0.022-0.018-0.034
	L357.697,23.809c-1.761-3.359-5.24-5.463-9.032-5.463H83.982c-3.744,0-7.186,2.051-8.969,5.342L1.245,159.919
	C0.452,161.371,0,163.035,0,164.805v318.556c0,5.632,4.567,10.293,10.199,10.293L420.545,493.654L420.545,493.654z M90.058,38.745
	h252.438l60.746,115.862H27.321L90.058,38.745z M261.169,473.161h-92.034V329.597h92.034V473.161z M281.567,473.161V319.398
	c0-5.632-4.567-10.199-10.199-10.199H158.936c-5.632,0-10.199,4.567-10.199,10.199v153.763H20.398V175.004h389.508v136.573
	c-45.434,5.288-80.816,44.003-80.816,90.833c0,28.483,13.091,53.965,33.571,70.751L281.567,473.161L281.567,473.161z
	 M420.545,473.467c-39.181,0-71.057-31.876-71.057-71.057s31.876-71.057,71.057-71.057s71.057,31.876,71.057,71.057
	S459.726,473.467,420.545,473.467z"/>
<path d="M477.739,383.665c-1.366-4.202-5.282-7.048-9.7-7.048h-28.871l-8.922-27.458c-1.366-4.203-5.282-7.048-9.7-7.048
	s-8.335,2.846-9.7,7.048l-8.921,27.458h-28.872c-4.418,0-8.335,2.846-9.7,7.048s0.131,8.806,3.705,11.403l23.357,16.971
	l-8.922,27.459c-1.366,4.202,0.131,8.806,3.705,11.403c1.788,1.298,3.891,1.948,5.995,1.948s4.208-0.65,5.995-1.948l23.357-16.97
	l23.357,16.97c3.576,2.598,8.414,2.598,11.99,0c3.575-2.597,5.071-7.201,3.705-11.403l-8.921-27.459l23.357-16.971
	C477.608,392.471,479.105,387.868,477.739,383.665z M432.691,399.893c-3.575,2.597-5.071,7.201-3.705,11.403l1.512,4.653
	l-3.958-2.875c-1.787-1.298-3.891-1.948-5.995-1.948c-2.104,0-4.208,0.65-5.995,1.948l-3.957,2.874l1.512-4.652
	c1.366-4.202-0.131-8.806-3.705-11.403l-3.958-2.876h4.893c4.418,0,8.335-2.846,9.7-7.048l1.51-4.653l1.512,4.653
	c1.366,4.203,5.282,7.048,9.7,7.048h4.893L432.691,399.893z"/>
<g>
</g>
<g>
</g>
<g>
</g>
<g>
</g>
<g>
</g>
<g>
</g>
<g>
</g>
<g>
</g>
<g>
</g>
<g>
</g>
<g>
</g>
<g>
</g>
<g>
</g>
<g>
</g>
<g>
</g>
</svg>
