<?xml version="1.0" encoding="utf-8"?>
<!-- Generator: Adobe Illustrator 20.1.0, SVG Export Plug-In . SVG Version: 6.00 Build 0)  -->
<svg version="1.1" id="S_Search_24_N" xmlns="http://www.w3.org/2000/svg" xmlns:xlink="http://www.w3.org/1999/xlink" x="0px"
	 y="0px" viewBox="0 0 24 24" style="enable-background:new 0 0 24 24;" xml:space="preserve">
<title>S_Search_24_N</title>
<g id="content">
	<path d="M13.9,2c-4.4,0-8,3.6-8,8c0,1.6,0.5,3.2,1.4,4.5l-4.9,4.9c-0.6,0.6-0.6,1.5,0,2.1s1.5,0.6,2.1,0l4.9-4.9
		c3.7,2.5,8.6,1.5,11.1-2.1s1.5-8.6-2.1-11.1C17.2,2.5,15.6,2,13.9,2z M13.9,16c-3.3,0-6.1-2.7-6.1-6s2.7-6.1,6-6.1s6.1,2.7,6.1,6
		l0,0C20,13.3,17.2,16,13.9,16z" transform="scale(-1, 1) translate(-24, 0)"/>
</g>
</svg>
